<svg width="120" height="40" viewBox="0 0 120 40" fill="none" xmlns="http://www.w3.org/2000/svg">
<rect width="40" height="40" rx="20" fill="#6A3D27"/>
<path d="M18.6668 22.3037C18.8705 22.3037 19.2262 22.4737 19.7127 22.9994C22.2419 25.7343 25.0806 27.8967 27.4686 29.2034C27.8085 29.392 27.9992 29.5312 27.9992 29.7091C27.9992 29.8461 27.9799 29.9831 27.6833 29.9831C27.1455 29.9831 24.1347 29.392 23.3376 29.0191C22.5407 28.6454 20.82 27.2548 18.7682 23.7317C18.5365 23.3329 18.291 22.9908 18.291 22.6724C18.291 22.3538 18.5818 22.3037 18.6668 22.3037Z" fill="white"/>
<path d="M25.484 12.2356C25.484 12.2356 25.9836 13.2183 21.1212 13.9003C21.651 12.4049 22.003 11.4195 22.003 11.4195C22.3097 10.5244 21.6129 10 21.1125 10C20.6108 10 20.2435 10.3845 20.0356 10.8679L18.5899 14.1614C16.6936 14.2877 15.2898 14.2216 14.6539 14.1599C13.7735 14.0732 13.5466 14.5587 13.5466 15.0544C13.5466 15.9207 15.0802 16.7993 16.0557 16.704C16.6763 16.646 17.032 16.6186 17.5324 16.5698L12.1601 28.808C11.955 29.2648 11.7893 30 12.7123 30C13.636 30 15.7117 29.1602 16.058 28.1861C16.2047 27.7772 17.2745 24.755 18.4675 21.3861C19.0586 21.2691 21.2306 20.9377 21.8339 20.9377C22.407 20.9377 22.7001 21.1938 22.7001 21.4972C22.7001 22.2022 21.0045 24.2249 17.7152 26.718C17.3523 26.9904 17.6526 27.2086 17.8391 27.2086C18.3459 27.2086 20.6121 25.6615 21.7375 24.8152C22.9714 23.8878 25.1218 21.4722 25.1218 19.7751C25.1218 19.1045 24.8253 18.4913 23.4767 18.4913C22.1702 18.4913 19.862 18.781 19.3703 18.8434C19.6921 17.9397 20.0059 17.0525 20.299 16.2228C22.8425 15.8721 24.3588 15.6433 25.2521 15.4575C26.484 15.1978 27.4732 14.4942 27.4732 13.767C27.4732 12.2199 25.484 12.2356 25.484 12.2356Z" fill="white"/>
<path d="M52 16L56 20L52 24" stroke="#AAAAAA" stroke-linecap="round" stroke-linejoin="round"/>
<path opacity="0.7" d="M58 16L62 20L58 24" stroke="#AAAAAA" stroke-linecap="round" stroke-linejoin="round"/>
<path opacity="0.5" d="M64 16L68 20L64 24" stroke="#AAAAAA" stroke-linecap="round" stroke-linejoin="round"/>
<circle cx="100" cy="20" r="20" fill="#FFE300"/>
<path d="M105.288 20.3112C106.649 19.4192 107.547 17.8889 107.547 16.1477C107.547 13.397 105.302 11.167 102.532 11.167H94.1234C93.9621 11.167 93.833 11.2952 93.833 11.4554V29.1643C93.833 29.3245 93.9621 29.4527 94.1234 29.4527H102.532C105.302 29.4527 107.547 27.2227 107.547 24.472C107.547 22.7308 106.649 21.2005 105.288 20.3112ZM101.161 24.472H99.5823V16.1477H101.161V24.472Z" fill="#333333"/>
</svg>
