<svg width="120" height="40" viewBox="0 0 120 40" fill="none" xmlns="http://www.w3.org/2000/svg">
<circle cx="20" cy="20" r="20" fill="#FFE300"/>
<path d="M25.289 20.3112C26.6496 19.4192 27.5478 17.8889 27.5478 16.1477C27.5478 13.397 25.3024 11.167 22.5327 11.167H14.1239C13.9626 11.167 13.8335 11.2952 13.8335 11.4554V29.1643C13.8335 29.3245 13.9626 29.4527 14.1239 29.4527H22.5327C25.3024 29.4527 27.5478 27.2227 27.5478 24.472C27.5478 22.7308 26.6496 21.2005 25.289 20.3112ZM21.1612 24.472H19.5827V16.1477H21.1612V24.472Z" fill="#333333"/>
<path opacity="0.5" d="M52 16L56 20L52 24" stroke="#AAAAAA" stroke-linecap="round" stroke-linejoin="round"/>
<path opacity="0.7" d="M58 16L62 20L58 24" stroke="#AAAAAA" stroke-linecap="round" stroke-linejoin="round"/>
<path d="M64 16L68 20L64 24" stroke="#AAAAAA" stroke-linecap="round" stroke-linejoin="round"/>
<rect x="80" width="40" height="40" rx="20" fill="#6A3D27"/>
<path d="M98.6673 22.3037C98.871 22.3037 99.2267 22.4737 99.7132 22.9994C102.242 25.7343 105.081 27.8967 107.469 29.2034C107.809 29.392 108 29.5312 108 29.7091C108 29.8461 107.98 29.9831 107.684 29.9831C107.146 29.9831 104.135 29.392 103.338 29.0191C102.541 28.6454 100.821 27.2548 98.7687 23.7317C98.537 23.3329 98.2915 22.9908 98.2915 22.6724C98.2915 22.3538 98.5823 22.3037 98.6673 22.3037Z" fill="white"/>
<path d="M105.484 12.2356C105.484 12.2356 105.984 13.2183 101.121 13.9003C101.651 12.4049 102.003 11.4195 102.003 11.4195C102.31 10.5244 101.613 10 101.112 10C100.611 10 100.243 10.3845 100.036 10.8679L98.5899 14.1614C96.6936 14.2877 95.2898 14.2216 94.6539 14.1599C93.7735 14.0732 93.5466 14.5587 93.5466 15.0544C93.5466 15.9207 95.0802 16.7993 96.0557 16.704C96.6763 16.646 97.032 16.6186 97.5324 16.5698L92.1601 28.808C91.955 29.2648 91.7893 30 92.7123 30C93.636 30 95.7117 29.1602 96.058 28.1861C96.2047 27.7772 97.2745 24.755 98.4675 21.3861C99.0586 21.2691 101.231 20.9377 101.834 20.9377C102.407 20.9377 102.7 21.1938 102.7 21.4972C102.7 22.2022 101.004 24.2249 97.7152 26.718C97.3523 26.9904 97.6526 27.2086 97.8391 27.2086C98.3459 27.2086 100.612 25.6615 101.737 24.8152C102.971 23.8878 105.122 21.4722 105.122 19.7751C105.122 19.1045 104.825 18.4913 103.477 18.4913C102.17 18.4913 99.862 18.781 99.3703 18.8434C99.6921 17.9397 100.006 17.0525 100.299 16.2228C102.843 15.8721 104.359 15.6433 105.252 15.4575C106.484 15.1978 107.473 14.4942 107.473 13.767C107.473 12.2199 105.484 12.2356 105.484 12.2356Z" fill="white"/>
</svg>
