<svg width="16" height="16" viewBox="0 0 16 16" fill="none" xmlns="http://www.w3.org/2000/svg">
<path opacity="0.6" d="M7.22941 11.4065H8.37886V10.2571H7.22941V11.4065ZM7.80414 4.50034C6.53119 4.50034 5.50049 5.53104 5.50049 6.80398H6.64994C6.64994 6.17226 7.16766 5.65453 7.79939 5.65453C8.43111 5.65453 8.94883 6.17226 8.94883 6.80398C8.94883 7.95343 7.22466 7.81094 7.22466 9.68235H8.37411C8.37411 8.38566 10.0983 8.24317 10.0983 6.80398C10.103 5.53104 9.07233 4.50034 7.80414 4.50034Z" fill="#222222"/>
<path opacity="0.6" fill-rule="evenodd" clip-rule="evenodd" d="M8.00049 0.611023C3.9286 0.611023 0.611175 3.92845 0.611175 8.00034C0.611175 12.0722 3.9286 15.3896 8.00049 15.3896C12.0724 15.3896 15.3898 12.0722 15.3898 8.00034C15.3898 3.92845 12.0724 0.611023 8.00049 0.611023ZM0.000488281 8.00034C0.000488281 3.59118 3.59133 0.000335693 8.00049 0.000335693C12.4096 0.000335693 16.0005 3.59118 16.0005 8.00034C16.0005 12.4095 12.4096 16.0003 8.00049 16.0003C3.59133 16.0003 0.000488281 12.4095 0.000488281 8.00034Z" fill="#222222"/>
</svg>
