<svg width="14" height="14" viewBox="0 0 14 14" fill="none" xmlns="http://www.w3.org/2000/svg">
<path d="M7 0C3.135 0 0 3.135 0 7C0 10.865 3.135 14 7 14C10.865 14 14 10.865 14 7C14 3.135 10.865 0 7 0ZM10.05 9.955L10.005 10.005C9.76 10.25 9.365 10.245 9.12 10.005L7 7.885L4.88 10.005C4.65 10.23 4.29 10.25 4.045 10.05L3.995 10.005C3.75 9.76 3.755 9.365 3.995 9.12L6.115 7L3.995 4.88C3.765 4.65 3.75 4.29 3.95 4.045L3.995 3.995C4.24 3.75 4.635 3.755 4.88 3.995L7 6.115L9.12 3.995C9.35 3.765 9.705 3.75 9.955 3.95L10.005 3.995C10.25 4.24 10.245 4.635 10.005 4.88L7.885 7L10.005 9.12C10.23 9.35 10.25 9.705 10.05 9.955Z" fill="#AAAAAA"/>
</svg>
