<svg width="14" height="15" viewBox="0 0 14 15" fill="none" xmlns="http://www.w3.org/2000/svg">
<path d="M13.455 7.93123H11.325C11.325 7.96123 11.325 7.99123 11.325 8.03623C11.325 10.5862 9.255 12.6412 6.72 12.6412C4.17 12.6412 2.115 10.5712 2.115 8.03623C2.115 5.48623 4.185 3.43123 6.72 3.43123C7.08 3.43123 7.425 3.47623 7.77 3.55123L7.155 5.17123C7.095 5.30623 7.095 5.45623 7.14 5.59123C7.245 5.90623 7.59 6.07123 7.905 5.96623L11.7 4.66123C11.73 4.66123 11.775 4.64623 11.805 4.61623C12.09 4.45123 12.195 4.09123 12.03 3.80623L10.08 0.296234C10.005 0.176234 9.9 0.0862341 9.765 0.0412341C9.465 -0.0787659 9.105 0.0712341 8.985 0.386234L8.55 1.54123C7.965 1.37623 7.365 1.30123 6.735 1.30123C3.015 1.30123 0 4.31623 0 8.03623C0 11.7562 3.015 14.7712 6.735 14.7712H7.05C10.62 14.6062 13.47 11.6512 13.47 8.05123L13.455 7.93123Z" fill="#DDDDDD"/>
</svg>
