<svg width="19" height="17" viewBox="0 0 19 17" fill="none" xmlns="http://www.w3.org/2000/svg">
<path fill-rule="evenodd" clip-rule="evenodd" d="M17.02 7.49H4.2L8.44 3.02C8.81 2.63 8.81 2.03 8.44 1.65L8.13 1.31L8.09 1.27C7.69 0.890003 7.06 0.910003 6.68 1.31L0.61 7.7L0.59 7.72L0.27 8.05C-0.09 8.44 -0.09 9.04 0.27 9.42L6.67 16.16C6.68 16.17 6.7 16.19 6.71 16.2C7.11 16.58 7.74 16.56 8.12 16.16L8.44 15.83C8.8 15.44 8.8 14.84 8.44 14.46L4.2 9.99H17.03C17.58 9.99 18.03 9.54 18.03 8.99V8.49C18.02 7.94 17.58 7.49 17.02 7.49Z" fill="#222222"/>
</svg>
