<svg width="180" height="20" viewBox="0 0 180 20" fill="none" xmlns="http://www.w3.org/2000/svg">
<path d="M73.0285 3.09309V3.91127H73.0154C73.0154 4.17309 72.9827 4.46764 72.9434 4.70327H69.5987V5.44945H71.3398V6.824H72.4001V5.44945H73.3689C74.0103 5.44945 74.4751 5.36436 74.7631 5.27273V4.60509C74.5667 4.64436 74.2525 4.67709 73.9121 4.69673C73.9972 4.39564 74.0758 3.97673 74.0758 3.64945V2.34036H70.1027V3.09309H73.0285Z" fill="#AAAAAA"/>
<path d="M71.3791 9.48146C71.3791 9.61891 71.4969 9.74327 71.6409 9.74327V9.73673H76.3863V8.984H72.4263V7.328H71.2416C71.3201 7.472 71.3791 7.76 71.3791 8.12655V9.48146Z" fill="#AAAAAA"/>
<path d="M75.254 7.66182H76.2358L76.2423 7.66836C76.2816 7.44582 76.3078 7.13164 76.3078 6.77818V2H75.1231C75.1951 2.15709 75.254 2.432 75.254 2.80509V6.05164H73.6569V6.79782H75.254V7.66182Z" fill="#AAAAAA"/>
<path d="M60.7099 5.42966V6.18239H67.995V5.42966H60.7099Z" fill="#AAAAAA"/>
<path d="M61.5805 2.17003V2.92276H63.7863C63.6815 3.71476 62.4117 4.33657 61.2205 4.40203L61.6655 5.01076C62.4772 4.97803 63.8059 4.56567 64.3557 3.9373C64.899 4.55912 66.2343 4.97803 67.0459 5.01076L67.491 4.40203C66.2997 4.33657 65.0365 3.7213 64.9252 2.92276H67.131V2.17003H61.5805Z" fill="#AAAAAA"/>
<path fill-rule="evenodd" clip-rule="evenodd" d="M62.3725 8.28348C62.3725 9.21294 63.2757 9.9133 64.3623 9.9133C65.4488 9.9133 66.3521 9.21294 66.3521 8.28348C66.3521 7.35403 65.4488 6.62748 64.3623 6.62748C63.2757 6.62748 62.3725 7.35403 62.3725 8.28348ZM63.4197 8.27694C63.4197 7.78603 63.8648 7.37366 64.3623 7.37366C64.8597 7.37366 65.3048 7.75985 65.3048 8.27694C65.3048 8.79403 64.8597 9.18021 64.3623 9.18021C63.8648 9.18021 63.4197 8.79403 63.4197 8.27694Z" fill="#AAAAAA"/>
<path fill-rule="evenodd" clip-rule="evenodd" d="M4 6.20866V4.95194H7.11564V4.15339C7.11564 3.88503 7.06982 3.47921 6.97164 3.24357H8.94182V4.95194H12.0575V6.21521H10.4735C10.9055 6.71921 11.1673 7.34757 11.1673 8.0283C11.1673 9.63848 9.71418 10.9541 8.032 10.9541C6.34982 10.9541 4.89018 9.63194 4.89018 8.02175C4.89018 7.34103 5.152 6.71266 5.584 6.20866H4ZM8.02545 6.35266C7.22036 6.35266 6.61164 7.0923 6.61164 8.0283C6.61164 8.9643 7.22036 9.70394 8.02545 9.70394C8.83055 9.70394 9.43927 8.9643 9.43927 8.0283C9.43927 7.0923 8.83709 6.35266 8.02545 6.35266Z" fill="#AAAAAA"/>
<path d="M7.15491 16.3018C6.91927 16.3018 6.70982 16.0923 6.70982 15.8567V13.4479C6.70982 12.8392 6.61818 12.3548 6.48727 12.1127H8.47709V15.0385H15.1142V16.3018H7.15491Z" fill="#AAAAAA"/>
<path d="M14.9702 8.1003V11.0523C14.9702 11.6479 14.9244 12.1716 14.8589 12.5447H13.2029V4.66394C13.2029 4.04212 13.1113 3.57085 12.9804 3.31557H14.9702V6.83703H16.7702V8.1003H14.9702Z" fill="#AAAAAA"/>
<path d="M25.4889 5.00431V7.02031C25.4889 7.43268 25.4431 7.90395 25.3711 8.28359H17.0845V9.54686H21.9151V11.7134H18.7536V12.9832H25.3449V16.3672H27.0009C27.0729 16.0007 27.1122 15.477 27.1122 14.8814V11.7134H23.6889V9.54686H28.9187V8.28359H27.0271C27.1514 7.83195 27.2496 7.2494 27.2496 6.72577V3.74759H18.7536V5.00431H25.4889Z" fill="#AAAAAA"/>
<path d="M36.518 12.6886V14.6392C36.518 15.1825 36.4787 15.7061 36.4198 16.0334H34.6983V12.6886H29.3572V11.3992H41.8591V12.6886H36.518Z" fill="#AAAAAA"/>
<path d="M32.7936 8.84646H40.3602V10.1359H31.4452C31.2031 10.1359 30.9871 9.92646 30.9871 9.68427V5.41009C30.9871 4.78173 30.8889 4.28427 30.7711 4.03555H40.2947V5.33809H32.7936V6.44427H40.19V7.66173H32.7936V8.84646Z" fill="#AAAAAA"/>
<path d="M51.5069 12.9047C49.432 12.2174 47.9593 9.86101 47.9593 7.70756H47.9658V6.02538H50.6102V4.65083H43.3644V6.02538H46.0022V7.70756C46.0022 9.86101 44.536 12.2174 42.4677 12.9047L43.3644 13.9127C44.7193 13.4807 46.1855 12.3483 46.9906 10.9999C47.7826 12.3548 49.2487 13.4807 50.6036 13.9127L51.5069 12.9047Z" fill="#AAAAAA"/>
<path d="M54.0335 14.7177V9.53374H55.9906V8.16574H54.0335V3.72138H51.8669C52.0109 4.00283 52.1157 4.51992 52.1157 5.18756V16.3476H53.9157C53.9877 15.9417 54.0335 15.3723 54.0335 14.7177Z" fill="#AAAAAA"/>
<path d="M86 6L94 14" stroke="#AAAAAA"/>
<path d="M94 6L86 14" stroke="#AAAAAA"/>
<path fill-rule="evenodd" clip-rule="evenodd" d="M146.85 8.87871C146.628 8.87871 146.432 8.89719 146.261 8.93415C146.09 8.97177 145.954 9.00345 145.852 9.03117V13.7159C145.963 13.7343 146.083 13.7436 146.212 13.7436H146.489C146.767 13.7436 147.028 13.698 147.273 13.605C147.518 13.5126 147.732 13.3654 147.917 13.1615C148.102 12.9588 148.245 12.6882 148.347 12.351C148.448 12.0137 148.499 11.6006 148.499 11.1102C148.499 10.3802 148.386 9.82647 148.16 9.44697C147.933 9.06813 147.497 8.87871 146.85 8.87871ZM146.698 15.2543C146.411 15.2543 146.129 15.2431 145.852 15.2193C145.575 15.1962 145.307 15.1639 145.049 15.123C144.789 15.0807 144.554 15.0345 144.341 14.9844C144.129 14.9336 143.958 14.8808 143.829 14.8253V4.36036L145.852 4V7.7422C146.074 7.59502 146.326 7.47688 146.608 7.3891C146.89 7.30132 147.192 7.2571 147.516 7.2571C148.578 7.2571 149.349 7.58974 149.83 8.25568C150.31 8.9203 150.551 9.85816 150.551 11.0686C150.551 12.3992 150.211 13.4301 149.531 14.1594C148.853 14.8893 147.909 15.2543 146.698 15.2543Z" fill="#AAAAAA"/>
<path fill-rule="evenodd" clip-rule="evenodd" d="M173.223 11.0264L175.815 14.1033L174.263 15.3091L171.116 11.4283V15.0464H169.093V4.3597L171.116 4V10.9432L173.999 7.03468L175.538 8.0887L173.223 11.0264Z" fill="#AAAAAA"/>
<path fill-rule="evenodd" clip-rule="evenodd" d="M104 4.36725V15.1145H105.247V4.08984L104 4.36725ZM105.695 11.1931L108.977 15.3098L109.94 14.5445L107.16 11.1243L109.56 8.03772L108.583 7.31475L105.695 11.1931Z" fill="#AAAAAA"/>
<path fill-rule="evenodd" clip-rule="evenodd" d="M113.844 14.1453C114.019 14.1453 114.2 14.1222 114.389 14.076C114.578 14.0298 114.766 13.9697 114.955 13.8958C115.143 13.8219 115.321 13.7315 115.487 13.6252C115.652 13.5196 115.799 13.4061 115.928 13.286V11.5119H114.603C113.931 11.5119 113.441 11.6281 113.133 11.8584C112.825 12.0894 112.671 12.4537 112.671 12.9533C112.671 13.748 113.062 14.1453 113.844 14.1453ZM111.451 13.0088C111.451 12.2419 111.707 11.6571 112.22 11.2552C112.733 10.8539 113.479 10.6526 114.459 10.6526H115.928V10.1675C115.928 8.99399 115.411 8.40725 114.376 8.40725C114.043 8.40725 113.694 8.45345 113.329 8.54585C112.964 8.63825 112.629 8.75375 112.324 8.89235L111.95 7.99145C112.329 7.77893 112.738 7.61459 113.176 7.49975C113.615 7.38425 114.043 7.32617 114.459 7.32617C116.251 7.32617 117.148 8.28251 117.148 10.1952V15.0462H116.205L116.053 14.2139C115.673 14.5189 115.269 14.7551 114.84 14.9215C114.41 15.0878 114.001 15.1709 113.613 15.1709C112.938 15.1709 112.409 14.9789 112.026 14.5961C111.643 14.2126 111.451 13.6833 111.451 13.0088Z" fill="#AAAAAA"/>
<path fill-rule="evenodd" clip-rule="evenodd" d="M124.356 7.2702L125.353 7.99092L122.9 11.0678L125.742 14.4774L124.757 15.2397L121.403 11.1365L124.356 7.2702ZM120.946 15.0457H119.671V4.33189L120.946 4.05469V15.0457Z" fill="#AAAAAA"/>
<path fill-rule="evenodd" clip-rule="evenodd" d="M129.515 14.1453C129.689 14.1453 129.871 14.1222 130.06 14.076C130.248 14.0298 130.437 13.9697 130.626 13.8958C130.814 13.8219 130.992 13.7315 131.157 13.6252C131.322 13.5196 131.469 13.4061 131.599 13.286V11.5119H130.274C129.602 11.5119 129.112 11.6281 128.804 11.8584C128.496 12.0894 128.342 12.4537 128.342 12.9533C128.342 13.748 128.732 14.1453 129.515 14.1453ZM127.122 13.0088C127.122 12.2419 127.378 11.6571 127.891 11.2552C128.404 10.8539 129.15 10.6526 130.13 10.6526H131.599V10.1675C131.599 8.99399 131.081 8.40725 130.047 8.40725C129.714 8.40725 129.365 8.45345 129 8.54585C128.635 8.63825 128.3 8.75375 127.995 8.89235L127.621 7.99145C128 7.77893 128.408 7.61459 128.847 7.49975C129.286 7.38425 129.714 7.32617 130.13 7.32617C131.922 7.32617 132.819 8.28251 132.819 10.1952V15.0462H131.876L131.724 14.2139C131.344 14.5189 130.94 14.7551 130.511 14.9215C130.081 15.0878 129.672 15.1709 129.284 15.1709C128.609 15.1709 128.08 14.9789 127.697 14.5961C127.313 14.2126 127.122 13.6833 127.122 13.0088Z" fill="#AAAAAA"/>
<path fill-rule="evenodd" clip-rule="evenodd" d="M138.343 8.36615C137.677 8.36615 137.167 8.61563 136.811 9.11459C136.456 9.61355 136.278 10.3435 136.278 11.3045C136.278 12.2562 136.456 12.9743 136.811 13.4594C137.167 13.9445 137.677 14.1867 138.343 14.1867C139.017 14.1867 139.533 13.9445 139.888 13.4594C140.243 12.9743 140.422 12.2562 140.422 11.3045C140.422 10.3435 140.243 9.61355 139.888 9.11459C139.533 8.61563 139.017 8.36615 138.343 8.36615ZM138.343 7.33984C139.396 7.33984 140.223 7.68238 140.824 8.36614C141.424 9.0499 141.725 10.0293 141.725 11.3045C141.725 12.5604 141.427 13.5267 140.831 14.2012C140.235 14.8751 139.405 15.213 138.343 15.213C137.289 15.213 136.462 14.8751 135.862 14.2012C135.261 13.5267 134.961 12.5604 134.961 11.3045C134.961 10.0293 135.263 9.0499 135.868 8.36614C136.474 7.68238 137.299 7.33984 138.343 7.33984Z" fill="#AAAAAA"/>
<path fill-rule="evenodd" clip-rule="evenodd" d="M154.609 13.6889C154.738 13.6889 154.882 13.675 155.039 13.6479C155.196 13.6202 155.348 13.578 155.496 13.5225C155.644 13.4671 155.78 13.4024 155.905 13.3285C156.029 13.2552 156.134 13.1807 156.217 13.1067V11.7214H155.288C154.244 11.7214 153.722 12.095 153.722 12.8434C153.722 13.407 154.018 13.6889 154.609 13.6889ZM151.906 12.8711C151.906 12.0771 152.176 11.4719 152.717 11.0555C153.258 10.6397 154.041 10.4318 155.066 10.4318H156.217V10.1829C156.217 9.76713 156.104 9.45957 155.877 9.26091C155.65 9.06225 155.334 8.96259 154.928 8.96259C154.614 8.96259 154.269 9.00681 153.895 9.09459C153.521 9.18237 153.172 9.30447 152.849 9.46155L152.294 8.10327C152.655 7.85379 153.092 7.65117 153.604 7.49343C154.117 7.33635 154.618 7.25781 155.108 7.25781C156.079 7.25781 156.82 7.50993 157.333 8.01285C157.845 8.51709 158.102 9.25827 158.102 10.2377V15.0478H156.674L156.466 14.4096C156.06 14.7053 155.669 14.9198 155.295 15.0537C154.921 15.1877 154.563 15.255 154.221 15.255C153.482 15.255 152.911 15.0452 152.509 14.6247C152.108 14.2043 151.906 13.6202 151.906 12.8711Z" fill="#AAAAAA"/>
<path fill-rule="evenodd" clip-rule="evenodd" d="M160.231 7.4792H161.659L161.95 8.25602C162.292 7.9511 162.675 7.71284 163.1 7.5419C163.526 7.37096 163.937 7.28516 164.334 7.28516C165.175 7.28516 165.822 7.53728 166.274 8.04086C166.727 8.54444 166.954 9.27242 166.954 10.2235V15.0474H164.888V10.2235C164.888 9.7991 164.789 9.49154 164.59 9.30212C164.392 9.11336 164.066 9.01766 163.613 9.01766C163.428 9.01766 163.214 9.03614 162.968 9.0731C162.724 9.11072 162.5 9.16154 162.297 9.22556V15.0474H160.231V7.4792Z" fill="#AAAAAA"/>
</svg>
