<svg width="180" height="20" viewBox="0 0 180 20" fill="none" xmlns="http://www.w3.org/2000/svg">
<path fill-rule="evenodd" clip-rule="evenodd" d="M46.8497 8.87864C46.6279 8.87864 46.4319 8.89712 46.261 8.93408C46.09 8.9717 45.9541 9.00338 45.8518 9.0311V13.7158C45.9627 13.7343 46.0828 13.7435 46.2121 13.7435H46.4893C46.7665 13.7435 47.0279 13.698 47.2728 13.6049C47.5176 13.5125 47.7321 13.3653 47.9169 13.1614C48.1017 12.9588 48.2449 12.6882 48.3472 12.3509C48.4482 12.0136 48.499 11.6005 48.499 11.1101C48.499 10.3801 48.3862 9.8264 48.1598 9.4469C47.9334 9.06806 47.4965 8.87864 46.8497 8.87864ZM46.6981 15.2542C46.411 15.2542 46.1292 15.243 45.852 15.2193C45.5748 15.1962 45.3068 15.1638 45.0488 15.1229C44.7894 15.0807 44.5538 15.0345 44.3413 14.9843C44.1287 14.9335 43.9578 14.8807 43.8291 14.8252V4.36028L45.852 3.99992V7.74212C46.0738 7.59494 46.3259 7.4768 46.6077 7.38902C46.8895 7.30124 47.1925 7.25702 47.5159 7.25702C48.5778 7.25702 49.3493 7.58966 49.8305 8.2556C50.3103 8.92022 50.5505 9.85808 50.5505 11.0685C50.5505 12.3991 50.2113 13.43 49.5315 14.1593C48.853 14.8893 47.9086 15.2542 46.6981 15.2542Z" fill="#AAAAAA"/>
<path fill-rule="evenodd" clip-rule="evenodd" d="M73.2231 11.0268L75.8149 14.1037L74.2626 15.3095L71.1163 11.4287V15.0469H69.0928V4.36014L71.1163 4.00044V10.9436L73.9992 7.03512L75.5377 8.08914L73.2231 11.0268Z" fill="#AAAAAA"/>
<path fill-rule="evenodd" clip-rule="evenodd" d="M4 4.36716V15.1144H5.24703V4.08975L4 4.36716ZM5.69507 11.193L8.97699 15.3097L9.93986 14.5444L7.15973 11.1242L9.56014 8.03763L8.58305 7.31466L5.69507 11.193Z" fill="#AAAAAA"/>
<path fill-rule="evenodd" clip-rule="evenodd" d="M13.8436 14.1457C14.0185 14.1457 14.2 14.1226 14.3888 14.0764C14.5775 14.0302 14.7656 13.9701 14.955 13.8962C15.1431 13.8223 15.3207 13.7319 15.4863 13.6256C15.6513 13.52 15.7985 13.4065 15.9279 13.2864V11.5123H14.6026C13.9307 11.5123 13.441 11.6285 13.1328 11.8588C12.8246 12.0898 12.6708 12.4541 12.6708 12.9537C12.6708 13.7484 13.0615 14.1457 13.8436 14.1457ZM11.4509 13.0092C11.4509 12.2423 11.707 11.6575 12.2198 11.2556C12.7326 10.8543 13.4791 10.653 14.4585 10.653H15.9277V10.1679C15.9277 8.9944 15.4103 8.40766 14.3754 8.40766C14.0427 8.40766 13.6936 8.45386 13.3286 8.54626C12.9636 8.63866 12.629 8.75416 12.3241 8.89276L11.9499 7.99186C12.3287 7.77934 12.7373 7.615 13.1762 7.50016C13.6151 7.38466 14.0427 7.32658 14.4585 7.32658C16.2504 7.32658 17.1474 8.28292 17.1474 10.1956V15.0466H16.2049L16.0524 14.2143C15.6729 14.5193 15.269 14.7555 14.8394 14.9219C14.4097 15.0882 14.0012 15.1713 13.6131 15.1713C12.9379 15.1713 12.4092 14.9793 12.0258 14.5965C11.6423 14.213 11.4509 13.6837 11.4509 13.0092Z" fill="#AAAAAA"/>
<path fill-rule="evenodd" clip-rule="evenodd" d="M24.3553 7.27114L25.3532 7.99186L22.9 11.0688L25.7413 14.4783L24.7572 15.2406L21.4031 11.1374L24.3553 7.27114ZM20.9458 15.0466H19.6707V4.33283L20.9458 4.05563V15.0466Z" fill="#AAAAAA"/>
<path fill-rule="evenodd" clip-rule="evenodd" d="M29.5146 14.1457C29.6895 14.1457 29.871 14.1226 30.0597 14.0764C30.2485 14.0302 30.4366 13.9701 30.626 13.8962C30.8141 13.8223 30.9916 13.7319 31.1573 13.6256C31.3223 13.52 31.4695 13.4065 31.5988 13.2864V11.5123H30.2736C29.6017 11.5123 29.112 11.6285 28.8037 11.8588C28.4955 12.0898 28.3417 12.4541 28.3417 12.9537C28.3417 13.7484 28.7325 14.1457 29.5146 14.1457ZM27.1221 13.0092C27.1221 12.2423 27.3782 11.6575 27.891 11.2556C28.4038 10.8543 29.1503 10.653 30.1297 10.653H31.5989V10.1679C31.5989 8.9944 31.0814 8.40766 30.0465 8.40766C29.7139 8.40766 29.3648 8.45386 28.9998 8.54626C28.6348 8.63866 28.3002 8.75416 27.9953 8.89276L27.621 7.99186C27.9999 7.77934 28.4084 7.615 28.8473 7.50016C29.2862 7.38466 29.7139 7.32658 30.1297 7.32658C31.9216 7.32658 32.8185 8.28292 32.8185 10.1956V15.0466H31.8761L31.7236 14.2143C31.3441 14.5193 30.9402 14.7555 30.5105 14.9219C30.0809 15.0882 29.6723 15.1713 29.2842 15.1713C28.6091 15.1713 28.0804 14.9793 27.6969 14.5965C27.3135 14.213 27.1221 13.6837 27.1221 13.0092Z" fill="#AAAAAA"/>
<path fill-rule="evenodd" clip-rule="evenodd" d="M38.3427 8.36623C37.6774 8.36623 37.1666 8.61571 36.8115 9.11467C36.4557 9.61363 36.2775 10.3436 36.2775 11.3045C36.2775 12.2563 36.4557 12.9743 36.8115 13.4594C37.1666 13.9445 37.6774 14.1868 38.3427 14.1868C39.0172 14.1868 39.5327 13.9445 39.8884 13.4594C40.2435 12.9743 40.4217 12.2563 40.4217 11.3045C40.4217 10.3436 40.2435 9.61363 39.8884 9.11467C39.5327 8.61571 39.0172 8.36623 38.3427 8.36623ZM38.3428 7.33992C39.3961 7.33992 40.2231 7.68246 40.8244 8.36622C41.4243 9.04998 41.7246 10.0294 41.7246 11.3045C41.7246 12.5605 41.427 13.5268 40.831 14.2013C40.235 14.8751 39.4054 15.2131 38.3428 15.2131C37.2894 15.2131 36.4624 14.8751 35.8618 14.2013C35.2612 13.5268 34.9609 12.5605 34.9609 11.3045C34.9609 10.0294 35.2632 9.04998 35.8684 8.36622C36.4737 7.68246 37.2987 7.33992 38.3428 7.33992Z" fill="#AAAAAA"/>
<path fill-rule="evenodd" clip-rule="evenodd" d="M54.6085 13.6881C54.7379 13.6881 54.8811 13.6743 55.0382 13.6472C55.1953 13.6195 55.3477 13.5773 55.4956 13.5218C55.6434 13.4664 55.7794 13.4017 55.9048 13.3278C56.0289 13.2545 56.1338 13.1799 56.217 13.106V11.7207H55.2877C54.2436 11.7207 53.7215 12.0942 53.7215 12.8427C53.7215 13.4063 54.0172 13.6881 54.6085 13.6881ZM51.9058 12.8704C51.9058 12.0764 52.1757 11.4712 52.7169 11.0547C53.2574 10.6389 54.0409 10.431 55.0658 10.431H56.2169V10.1822C56.2169 9.76642 56.1034 9.45886 55.877 9.2602C55.6499 9.06154 55.3338 8.96188 54.9272 8.96188C54.6131 8.96188 54.2686 9.0061 53.895 9.09388C53.5208 9.18166 53.1716 9.30376 52.8482 9.46084L52.2938 8.10256C52.6542 7.85308 53.0911 7.65046 53.6039 7.49272C54.1168 7.33564 54.6177 7.2571 55.1074 7.2571C56.0783 7.2571 56.8195 7.50922 57.3323 8.01214C57.8444 8.51638 58.1012 9.25756 58.1012 10.237V15.0471H56.6736L56.4657 14.4089C56.0591 14.7045 55.6684 14.919 55.2949 15.053C54.9206 15.187 54.5623 15.2543 54.2204 15.2543C53.4812 15.2543 52.9109 15.0444 52.5083 14.624C52.1071 14.2036 51.9058 13.6195 51.9058 12.8704Z" fill="#AAAAAA"/>
<path fill-rule="evenodd" clip-rule="evenodd" d="M60.2314 7.47872H61.659L61.9501 8.25554C62.292 7.95062 62.6754 7.71236 63.1005 7.54142C63.5255 7.37048 63.9367 7.28468 64.334 7.28468C65.1748 7.28468 65.8216 7.5368 66.2744 8.04038C66.7272 8.54396 66.9535 9.27194 66.9535 10.223V15.0469H64.8884V10.223C64.8884 9.79862 64.7887 9.49106 64.5901 9.30164C64.3921 9.11288 64.066 9.01718 63.6133 9.01718C63.4285 9.01718 63.214 9.03566 62.9685 9.07262C62.7236 9.11024 62.4999 9.16106 62.2966 9.22508V15.0469H60.2314V7.47872Z" fill="#AAAAAA"/>
<path d="M173.029 3.09309V3.91127H173.015C173.015 4.17309 172.983 4.46764 172.943 4.70327H169.599V5.44945H171.34V6.824H172.4V5.44945H173.369C174.01 5.44945 174.475 5.36436 174.763 5.27273V4.60509C174.567 4.64436 174.253 4.67709 173.912 4.69673C173.997 4.39564 174.076 3.97673 174.076 3.64945V2.34036H170.103V3.09309H173.029Z" fill="#AAAAAA"/>
<path d="M171.379 9.48146C171.379 9.61891 171.497 9.74327 171.641 9.74327V9.73673H176.386V8.984H172.426V7.328H171.242C171.32 7.472 171.379 7.76 171.379 8.12655V9.48146Z" fill="#AAAAAA"/>
<path d="M175.254 7.66182H176.236L176.242 7.66836C176.282 7.44582 176.308 7.13164 176.308 6.77818V2H175.123C175.195 2.15709 175.254 2.432 175.254 2.80509V6.05164H173.657V6.79782H175.254V7.66182Z" fill="#AAAAAA"/>
<path d="M160.71 5.42966V6.18239H167.995V5.42966H160.71Z" fill="#AAAAAA"/>
<path d="M161.58 2.17003V2.92276H163.786C163.682 3.71476 162.412 4.33657 161.22 4.40203L161.666 5.01076C162.477 4.97803 163.806 4.56567 164.356 3.9373C164.899 4.55912 166.234 4.97803 167.046 5.01076L167.491 4.40203C166.3 4.33657 165.036 3.7213 164.925 2.92276H167.131V2.17003H161.58Z" fill="#AAAAAA"/>
<path fill-rule="evenodd" clip-rule="evenodd" d="M162.372 8.28348C162.372 9.21294 163.276 9.9133 164.362 9.9133C165.449 9.9133 166.352 9.21294 166.352 8.28348C166.352 7.35403 165.449 6.62748 164.362 6.62748C163.276 6.62748 162.372 7.35403 162.372 8.28348ZM163.42 8.27694C163.42 7.78603 163.865 7.37366 164.362 7.37366C164.86 7.37366 165.305 7.75985 165.305 8.27694C165.305 8.79403 164.86 9.18021 164.362 9.18021C163.865 9.18021 163.42 8.79403 163.42 8.27694Z" fill="#AAAAAA"/>
<path fill-rule="evenodd" clip-rule="evenodd" d="M104 6.20866V4.95194H107.116V4.15339C107.116 3.88503 107.07 3.47921 106.972 3.24357H108.942V4.95194H112.057V6.21521H110.473C110.905 6.71921 111.167 7.34757 111.167 8.0283C111.167 9.63848 109.714 10.9541 108.032 10.9541C106.35 10.9541 104.89 9.63194 104.89 8.02175C104.89 7.34103 105.152 6.71266 105.584 6.20866H104ZM108.025 6.35266C107.22 6.35266 106.612 7.0923 106.612 8.0283C106.612 8.9643 107.22 9.70394 108.025 9.70394C108.831 9.70394 109.439 8.9643 109.439 8.0283C109.439 7.0923 108.837 6.35266 108.025 6.35266Z" fill="#AAAAAA"/>
<path d="M107.155 16.3018C106.919 16.3018 106.71 16.0923 106.71 15.8567V13.4479C106.71 12.8392 106.618 12.3548 106.487 12.1127H108.477V15.0385H115.114V16.3018H107.155Z" fill="#AAAAAA"/>
<path d="M114.97 8.1003V11.0523C114.97 11.6479 114.924 12.1716 114.859 12.5447H113.203V4.66394C113.203 4.04212 113.111 3.57085 112.98 3.31557H114.97V6.83703H116.77V8.1003H114.97Z" fill="#AAAAAA"/>
<path d="M125.489 5.00431V7.02031C125.489 7.43268 125.443 7.90395 125.371 8.28359H117.085V9.54686H121.915V11.7134H118.754V12.9832H125.345V16.3672H127.001C127.073 16.0007 127.112 15.477 127.112 14.8814V11.7134H123.689V9.54686H128.919V8.28359H127.027C127.151 7.83195 127.25 7.2494 127.25 6.72577V3.74759H118.754V5.00431H125.489Z" fill="#AAAAAA"/>
<path d="M136.518 12.6886V14.6392C136.518 15.1825 136.479 15.7061 136.42 16.0334H134.698V12.6886H129.357V11.3992H141.859V12.6886H136.518Z" fill="#AAAAAA"/>
<path d="M132.794 8.84646H140.36V10.1359H131.445C131.203 10.1359 130.987 9.92646 130.987 9.68427V5.41009C130.987 4.78173 130.889 4.28427 130.771 4.03555H140.295V5.33809H132.794V6.44427H140.19V7.66173H132.794V8.84646Z" fill="#AAAAAA"/>
<path d="M151.507 12.9047C149.432 12.2174 147.959 9.86101 147.959 7.70756H147.966V6.02538H150.61V4.65083H143.364V6.02538H146.002V7.70756C146.002 9.86101 144.536 12.2174 142.468 12.9047L143.364 13.9127C144.719 13.4807 146.185 12.3483 146.991 10.9999C147.783 12.3548 149.249 13.4807 150.604 13.9127L151.507 12.9047Z" fill="#AAAAAA"/>
<path d="M154.033 14.7177V9.53374H155.991V8.16574H154.033V3.72138H151.867C152.011 4.00283 152.116 4.51992 152.116 5.18756V16.3476H153.916C153.988 15.9417 154.033 15.3723 154.033 14.7177Z" fill="#AAAAAA"/>
<path d="M86 6L94 14" stroke="#AAAAAA"/>
<path d="M94 6L86 14" stroke="#AAAAAA"/>
</svg>
