<svg width="67" height="30" viewBox="0 0 67 30" fill="none" xmlns="http://www.w3.org/2000/svg">
<path d="M41.3879 17.6442L39.4466 13.3885L37.5476 17.6442H41.3879ZM47.7408 23.3711H43.9578L42.8014 20.8006H38.9606L37.2192 18.4155L34.9777 23.3711H31.052L37.3904 9.10385H41.3879L47.7408 23.3711Z" fill="black"/>
<path d="M51.3099 23.3711H47.7407V9.10385H51.3099V23.3711Z" fill="black"/>
<path d="M56.546 15.2878H60.8437C61.5761 15.1073 61.9521 14.6071 61.971 13.7881C61.9521 12.8742 61.5383 12.3508 60.7292 12.2171H56.546V15.2878ZM52.9773 23.3574V9.10355H61.143C62.4759 9.16106 63.5628 9.60598 64.4053 10.4392C65.2479 11.2724 65.6691 12.3838 65.6691 13.7739C65.6211 16.1255 64.536 17.5824 62.4138 18.1441L66.0116 23.3574H61.6717L56.5319 16.0591V23.3574H52.9773Z" fill="black"/>
<path d="M31.3818 28.6639H32.142L31.7604 27.4218L31.3818 28.6639ZM32.3459 29.3308H31.1776L30.9733 29.9995H30.063L31.3594 26.4183H32.1614L33.4679 29.9995H32.5523L32.3459 29.3308Z" fill="black"/>
<path d="M35.6288 29.9995H34.7783V26.4183H35.6288V29.9995Z" fill="black"/>
<path d="M40.3024 28.0687H40.8416C41.0036 28.0687 41.1251 28.0255 41.207 27.9394C41.2884 27.8534 41.3298 27.7326 41.3298 27.5779C41.3298 27.4236 41.288 27.3024 41.2057 27.2145C41.1229 27.1267 41.0019 27.0821 40.8416 27.0821H40.3024V28.0687ZM40.7637 28.733H40.3024V29.9995H39.4497V26.4183H40.8416C41.2607 26.4183 41.5886 26.5124 41.825 26.701C42.0614 26.8891 42.1798 27.1552 42.1798 27.4994C42.1798 27.7482 42.1296 27.9546 42.0302 28.1186C41.9307 28.2823 41.7748 28.4151 41.5627 28.5167L42.3009 29.9625V29.9995H41.3879L40.7637 28.733Z" fill="black"/>
<path d="M44.8313 27.8792C44.5914 27.8792 44.4492 28.0397 44.4034 28.3616H45.2292V28.2974C45.2327 28.1646 45.1997 28.0616 45.1302 27.9889C45.0606 27.9158 44.9607 27.8792 44.8313 27.8792ZM44.9233 29.9995C44.5201 29.9995 44.1939 29.8778 43.9447 29.6344C43.6951 29.391 43.5706 29.074 43.5706 28.6839V28.6144C43.5706 28.3424 43.6203 28.1021 43.7202 27.894C43.8193 27.6858 43.965 27.5244 44.156 27.4107C44.3466 27.2966 44.5738 27.2395 44.8361 27.2395C45.2055 27.2395 45.4969 27.3559 45.7104 27.5877C45.9239 27.8199 46.0313 28.1436 46.0313 28.5578V28.8801H44.4034C44.4329 29.0294 44.4967 29.1471 44.5958 29.2323C44.6939 29.3174 44.822 29.3598 44.9792 29.3598C45.2385 29.3598 45.441 29.2684 45.5867 29.0847L45.9604 29.5323C45.8587 29.675 45.7143 29.7882 45.5268 29.8733C45.3397 29.9572 45.1385 29.9995 44.9233 29.9995Z" fill="black"/>
<path d="M48.7307 29.2028C48.7307 29.1324 48.6941 29.0758 48.6215 29.033C48.5484 28.9902 48.4097 28.9461 48.2064 28.9001C48.0021 28.8542 47.8335 28.794 47.701 28.7191C47.5676 28.6447 47.4668 28.5542 47.3973 28.4476C47.3273 28.3407 47.2925 28.2189 47.2925 28.0807C47.2925 27.8369 47.3924 27.6354 47.5914 27.4771C47.7908 27.3189 48.0514 27.24 48.3737 27.24C48.7205 27.24 48.9983 27.3193 49.2091 27.4785C49.4196 27.6372 49.5252 27.8467 49.5252 28.1057H48.7038C48.7038 27.8926 48.5933 27.7856 48.3714 27.7856C48.2852 27.7856 48.2134 27.8101 48.1549 27.8583C48.0968 27.9069 48.0677 27.9675 48.0677 28.0393C48.0677 28.1133 48.1029 28.1726 48.1742 28.2189C48.2456 28.2649 48.3591 28.3023 48.5158 28.3322C48.6717 28.3616 48.8094 28.3964 48.9274 28.4378C49.3227 28.5756 49.5199 28.8221 49.5199 29.1779C49.5199 29.4209 49.4138 29.6188 49.2003 29.7708C48.9877 29.9233 48.7122 29.9995 48.3737 29.9995C48.1487 29.9995 47.948 29.9585 47.771 29.8769C47.5949 29.7944 47.4567 29.683 47.3586 29.5426C47.2595 29.4012 47.2102 29.2528 47.2102 29.0972H47.9753C47.9784 29.2198 48.0193 29.3094 48.0968 29.366C48.1742 29.4226 48.2742 29.4512 48.3952 29.4512C48.507 29.4512 48.5911 29.4284 48.647 29.3821C48.7029 29.3366 48.7307 29.2764 48.7307 29.2028Z" fill="black"/>
<path d="M52.0765 27.8792C51.837 27.8792 51.6948 28.0397 51.649 28.3616H52.4748V28.2974C52.4784 28.1646 52.4449 28.0616 52.3753 27.9889C52.3058 27.9158 52.2063 27.8792 52.0765 27.8792ZM52.1689 29.9995C51.7657 29.9995 51.4395 29.8778 51.1899 29.6344C50.9407 29.391 50.8162 29.074 50.8162 28.6839V28.6144C50.8162 28.3424 50.8659 28.1021 50.9658 27.894C51.0649 27.6858 51.2101 27.5244 51.4016 27.4107C51.5922 27.2966 51.8194 27.2395 52.0817 27.2395C52.4511 27.2395 52.7425 27.3559 52.956 27.5877C53.1695 27.8199 53.2769 28.1436 53.2769 28.5578V28.8801H51.649C51.6785 29.0294 51.7423 29.1471 51.8414 29.2323C51.9395 29.3174 52.0676 29.3598 52.2248 29.3598C52.4841 29.3598 52.6866 29.2684 52.8323 29.0847L53.206 29.5323C53.1043 29.675 52.9595 29.7882 52.7724 29.8733C52.5853 29.9572 52.3842 29.9995 52.1689 29.9995Z" fill="black"/>
<path d="M55.5684 29.4093C55.6701 29.4093 55.755 29.3874 55.822 29.3433C55.8893 29.2987 55.9377 29.2488 55.9668 29.193V28.7677H55.7286C55.4438 28.7677 55.3012 28.897 55.3012 29.156C55.3012 29.2318 55.3263 29.2925 55.3765 29.3393C55.4267 29.3861 55.4905 29.4093 55.5684 29.4093ZM56.0808 29.9505C56.0517 29.8965 56.0258 29.8172 56.0029 29.712C55.8528 29.9037 55.6423 29.9995 55.3721 29.9995C55.1238 29.9995 54.9134 29.9237 54.7399 29.7721C54.5669 29.6206 54.4802 29.4302 54.4802 29.2002C54.4802 28.9117 54.5859 28.6937 54.7958 28.5457C55.0067 28.3982 55.3126 28.3246 55.7141 28.3246H55.9668V28.1837C55.9668 27.9381 55.8624 27.8155 55.6534 27.8155C55.4592 27.8155 55.3619 27.9131 55.3619 28.1071H54.5436C54.5436 27.8503 54.6515 27.6412 54.8676 27.4807C55.0837 27.3198 55.3593 27.24 55.6947 27.24C56.0302 27.24 56.2943 27.3224 56.4893 27.4883C56.683 27.6537 56.7829 27.881 56.7877 28.1699V29.3477C56.7908 29.5925 56.8278 29.7793 56.8991 29.9086V29.9505H56.0808Z" fill="black"/>
<path d="M59.8251 28.0883L59.5556 28.0687C59.2981 28.0687 59.1331 28.1512 59.06 28.3148V29.9995H58.2412V27.338H59.0089L59.0358 27.68C59.1736 27.4192 59.365 27.289 59.6116 27.289C59.6987 27.289 59.7749 27.2988 59.8396 27.3184L59.8251 28.0883Z" fill="black"/>
<path d="M62.1798 29.3603C62.2947 29.3603 62.3841 29.3291 62.4466 29.2658C62.5104 29.2024 62.5408 29.1146 62.539 29.0014H63.3072C63.3072 29.2934 63.2037 29.5328 62.9969 29.7196C62.7908 29.9064 62.5245 30 62.1992 30C61.8171 30 61.516 29.8787 61.2959 29.6358C61.0754 29.3933 60.9653 29.0571 60.9653 28.6274V28.593C60.9653 28.3242 61.0146 28.087 61.1124 27.8811C61.2105 27.6751 61.3518 27.5168 61.5363 27.4058C61.7207 27.2953 61.9395 27.24 62.1917 27.24C62.5338 27.24 62.8049 27.3363 63.0057 27.528C63.2064 27.7197 63.3072 27.9796 63.3072 28.3077H62.539C62.539 28.17 62.506 28.0643 62.44 27.9903C62.3731 27.9167 62.2842 27.8797 62.1724 27.8797C61.9606 27.8797 61.8369 28.0161 61.8013 28.2903C61.7894 28.3773 61.7841 28.4967 61.7841 28.6496C61.7841 28.9167 61.8158 29.1021 61.8787 29.2051C61.9417 29.309 62.0425 29.3603 62.1798 29.3603Z" fill="black"/>
<path d="M65.4482 27.6233C65.623 27.4004 65.8466 27.289 66.1182 27.289C66.4083 27.289 66.6271 27.3759 66.7745 27.5498C66.922 27.7237 66.9973 27.9804 66.9999 28.3197V29.9995H66.1794V28.3389C66.1794 28.1984 66.1512 28.095 66.0944 28.0281C66.0376 27.9617 65.9412 27.9287 65.8052 27.9287C65.6371 27.9287 65.5178 27.9831 65.4482 28.091V29.9995H64.6299V26.2213H65.4482V27.6233Z" fill="black"/>
<path d="M23.5464 18.7096V20.5312H25.6136V25.0744H23.5464V26.896H27.4122V18.7096H23.5464Z" fill="black"/>
<path d="M3.81343 25.074H1.79865V20.5308H3.81343V25.074ZM20.6436 11.6561C20.736 11.3088 21.0067 11.0359 21.3505 10.9445C21.4311 10.9236 21.5143 10.9111 21.6014 10.9111C22.1482 10.9111 22.5932 11.3618 22.5932 11.916C22.5932 12.08 22.5536 12.2347 22.484 12.3716C22.3885 12.5619 22.234 12.7171 22.0452 12.8134C21.9118 12.8816 21.7608 12.9208 21.6014 12.9208C21.0538 12.9208 20.6088 12.4701 20.6088 11.916C20.6088 11.8259 20.6216 11.739 20.6436 11.6561ZM5.61254 12.4995L15.9616 18.9343L20.4014 14.4673C20.7651 14.6434 21.1718 14.7424 21.6014 14.7424C23.1404 14.7424 24.3919 13.4745 24.3919 11.916C24.3919 10.3574 23.1404 9.08953 21.6014 9.08953C20.0621 9.08953 18.8101 10.3574 18.8101 11.916C18.8101 12.3765 18.9202 12.8107 19.1134 13.1954L15.6971 16.6326L3.81343 9.24378V18.7092H0V26.8956H3.81343V29.9976H23.5991L22.1803 28.176H5.61254V12.4995Z" fill="black"/>
<path d="M11.2781 22.593C11.2781 23.1471 10.8331 23.5979 10.2859 23.5979C9.73876 23.5979 9.29328 23.1471 9.29328 22.593C9.29328 22.0389 9.73876 21.5881 10.2859 21.5881C10.8331 21.5881 11.2781 22.0389 11.2781 22.593ZM7.49463 22.593C7.49463 24.152 8.747 25.4194 10.2859 25.4194C11.8249 25.4194 13.0768 24.152 13.0768 22.593C13.0768 21.0345 11.8249 19.7666 10.2859 19.7666C8.747 19.7666 7.49463 21.0345 7.49463 22.593Z" fill="black"/>
<path d="M19.7621 22.593C19.7621 23.1471 19.317 23.5979 18.7699 23.5979C18.2227 23.5979 17.7777 23.1471 17.7777 22.593C17.7777 22.0389 18.2227 21.5881 18.7699 21.5881C19.317 21.5881 19.7621 22.0389 19.7621 22.593ZM15.979 22.593C15.979 24.152 17.2309 25.4194 18.7699 25.4194C20.3088 25.4194 21.5607 24.152 21.5607 22.593C21.5607 21.0345 20.3088 19.7666 18.7699 19.7666C17.2309 19.7666 15.979 21.0345 15.979 22.593Z" fill="black"/>
<path d="M13.105 3.71189C13.1653 3.71189 13.2714 3.76316 13.4158 3.92187C14.0823 4.66325 14.8579 5.29452 15.7167 5.79338C15.818 5.85 15.8743 5.89235 15.8743 5.94629C15.8743 5.98731 15.869 6.02832 15.7806 6.02832C15.3421 5.97705 14.9103 5.87987 14.4912 5.73765C14.2544 5.62531 13.7438 5.20491 13.1354 4.14299C13.0641 4.04893 13.0157 3.93926 12.9937 3.82335C12.9928 3.76272 13.0403 3.71279 13.0998 3.71189H13.105Z" fill="black"/>
<path d="M15.1276 0.675102C15.1276 0.675102 15.276 0.971566 13.8334 1.17664L14.0962 0.42857C14.1636 0.273874 14.094 0.0937667 13.9417 0.0255575C13.9074 0.0104003 13.8708 0.00192976 13.8334 0.000146389C13.6842 0.0139666 13.5579 0.117394 13.5138 0.262282L13.0847 1.25599C12.696 1.28631 12.3055 1.28631 11.9168 1.25599C11.6549 1.22969 11.588 1.37636 11.588 1.52571C11.588 1.7874 12.0427 2.05176 12.3324 2.02323C12.5164 2.00584 12.6224 1.99782 12.7712 1.98266L11.1773 5.67441C11.1165 5.81261 11.0668 6.03418 11.3406 6.03418C11.6148 6.03418 12.2311 5.78051 12.335 5.48717C12.379 5.36368 12.6968 4.452 13.0508 3.43556C13.3809 3.37314 13.7141 3.32767 14.0491 3.30048C14.2195 3.30048 14.3066 3.3776 14.3066 3.46899C14.3066 3.68209 13.8031 4.29196 12.8267 5.04404C12.7193 5.12651 12.8082 5.19205 12.8632 5.19205C13.0142 5.19205 13.6873 4.72573 14.0201 4.47028C14.3863 4.19076 15.0255 3.4632 15.0255 2.95007C15.0255 2.74767 14.937 2.56311 14.5364 2.56311C14.1486 2.56311 13.4641 2.65182 13.3184 2.66921C13.413 2.39593 13.5064 2.12889 13.594 1.87834C14.3485 1.77269 14.7988 1.70403 15.0633 1.64786C15.4292 1.56895 15.7228 1.35719 15.7228 1.13741C15.7179 0.670198 15.1276 0.675102 15.1276 0.675102Z" fill="black"/>
<path d="M2.29467 2.98628H1.83643V2.5262H2.29467V1.91366H2.91579V2.5262H3.50346V2.98628H2.91579V4.11195C2.91579 4.31925 2.9717 4.51095 3.20853 4.51095C3.30669 4.51496 3.40442 4.49222 3.49113 4.44541L3.51006 4.94249C3.3604 4.98351 3.20545 5.00268 3.0505 4.99911C2.664 5.03076 2.32505 4.73965 2.29379 4.34823C2.28983 4.30409 2.29071 4.25951 2.29511 4.21538L2.29467 2.98628Z" fill="black"/>
<path d="M3.97705 2.52622H4.52862V3.07501H4.53786C4.59641 2.74779 4.86405 2.49947 5.19156 2.4696C5.25495 2.46648 5.31922 2.47273 5.38129 2.48877V3.12227C5.29369 3.08393 5.1986 3.0661 5.10352 3.07056C4.59817 3.07056 4.59817 3.70851 4.59817 4.05535V4.94385H3.97705V2.52622Z" fill="black"/>
<path d="M7.95713 4.94298H7.36859V4.61531H7.35978C7.17094 4.85872 6.88217 5.00049 6.57623 5.00049C6.01145 5.00049 5.76538 4.59703 5.76538 4.05225V2.52803H6.3865V3.81731C6.3865 4.11333 6.3909 4.51233 6.78972 4.51233C7.23873 4.51233 7.33689 4.01971 7.33689 3.70987V2.52803H7.95713V4.94298Z" fill="black"/>
<path d="M10.0026 3.49716C9.98409 3.19222 9.84498 2.9292 9.49811 2.9292C9.19921 2.92295 8.95182 3.16325 8.9461 3.46595C8.94566 3.4762 8.94566 3.4869 8.9461 3.49716H10.0026ZM10.4194 4.8065C10.1676 4.94203 9.88504 5.00845 9.60023 4.99954C8.97779 5.06552 8.4205 4.60767 8.35535 3.97729C8.34743 3.90062 8.34699 3.82304 8.35447 3.74681C8.35447 3.04689 8.72027 2.46957 9.46157 2.46957C10.3468 2.46957 10.5973 3.08478 10.5973 3.92915H8.94742C8.95754 4.27777 9.24499 4.55239 9.59011 4.54214C9.60199 4.54169 9.61432 4.5408 9.62664 4.53991C9.90705 4.5301 10.1804 4.44629 10.4194 4.29694V4.80784" fill="black"/>
<path d="M15.4551 2.56187H16.0071V3.10977H16.0159C16.0749 2.78254 16.3425 2.53512 16.67 2.50525C16.7334 2.50213 16.7972 2.50837 16.8589 2.52397V3.15747C16.7717 3.11913 16.6762 3.10174 16.5811 3.1062C16.0762 3.1062 16.0762 3.74326 16.0762 4.09099V4.97949H15.4551V2.56187Z" fill="black"/>
<path d="M17.2192 2.56307H17.8412V4.97803H17.2192V2.56307ZM17.2192 1.55555H17.8412V2.15649H17.2192V1.55555Z" fill="black"/>
<path d="M19.8825 3.53333C19.8636 3.22751 19.7249 2.96493 19.3776 2.96493C19.0787 2.95869 18.8318 3.19898 18.826 3.50124C18.8256 3.51193 18.826 3.52263 18.8265 3.53333H19.8825ZM20.2981 4.84223C20.0467 4.97776 19.7641 5.04418 19.4793 5.03527C18.8564 5.1008 18.2982 4.64251 18.2335 4.01169C18.2256 3.93501 18.2252 3.85833 18.2326 3.78165C18.2326 3.08217 18.5984 2.50485 19.3402 2.50485C20.2254 2.50485 20.475 3.11962 20.475 3.96443H18.8265C18.8362 4.31305 19.1232 4.58723 19.4674 4.57697C19.4806 4.57653 19.4938 4.57564 19.507 4.5743C19.7874 4.56449 20.0603 4.48068 20.2989 4.33089V4.84223" fill="black"/>
<path d="M20.8425 2.56174H21.4315V2.88986H21.4403C21.6182 2.63262 21.9149 2.48684 22.2243 2.50512C22.7895 2.50512 23.0347 2.90858 23.0347 3.45291V4.97803H22.414V3.68785C22.414 3.39184 22.4096 2.99328 22.0104 2.99328C21.5618 2.99328 21.4641 3.48501 21.4641 3.79619V4.97803H20.8425V2.56174Z" fill="black"/>
<path d="M24.5854 4.5464C24.9979 4.5464 25.1321 4.1055 25.1321 3.76311C25.1321 3.42073 24.975 2.9932 24.5761 2.9932C24.1778 2.9932 24.0629 3.43723 24.0629 3.76311C24.0615 4.09569 24.176 4.5464 24.5841 4.5464H24.5854ZM25.1546 4.70556H25.1453C24.967 4.92712 24.6959 5.04927 24.4141 5.03501C23.6825 5.03501 23.4136 4.42425 23.4136 3.76311C23.4136 3.09618 23.6821 2.50459 24.4141 2.50459C24.6924 2.49211 24.9596 2.61827 25.1277 2.84296H25.1374V1.45828H25.7581V4.97794H25.1559V4.70556" fill="black"/>
</svg>
