<svg width="180" height="20" viewBox="0 0 180 20" fill="none" xmlns="http://www.w3.org/2000/svg">
<path d="M73.0285 3.09309V3.91127H73.0154C73.0154 4.17309 72.9827 4.46764 72.9434 4.70327H69.5987V5.44945H71.3398V6.824H72.4001V5.44945H73.3689C74.0103 5.44945 74.4751 5.36436 74.7631 5.27273V4.60509C74.5667 4.64436 74.2525 4.67709 73.9121 4.69673C73.9972 4.39564 74.0758 3.97673 74.0758 3.64945V2.34036H70.1027V3.09309H73.0285Z" fill="#222222"/>
<path d="M71.3791 9.48146C71.3791 9.61891 71.4969 9.74327 71.6409 9.74327V9.73673H76.3863V8.984H72.4263V7.328H71.2416C71.3201 7.472 71.3791 7.76 71.3791 8.12655V9.48146Z" fill="#222222"/>
<path d="M75.254 7.66182H76.2358L76.2423 7.66836C76.2816 7.44582 76.3078 7.13164 76.3078 6.77818V2H75.1231C75.1951 2.15709 75.254 2.432 75.254 2.80509V6.05164H73.6569V6.79782H75.254V7.66182Z" fill="#222222"/>
<path d="M60.7099 5.42966V6.18239H67.995V5.42966H60.7099Z" fill="#222222"/>
<path d="M61.5805 2.17003V2.92276H63.7863C63.6815 3.71476 62.4117 4.33657 61.2205 4.40203L61.6655 5.01076C62.4772 4.97803 63.8059 4.56567 64.3557 3.9373C64.899 4.55912 66.2343 4.97803 67.0459 5.01076L67.491 4.40203C66.2997 4.33657 65.0365 3.7213 64.9252 2.92276H67.131V2.17003H61.5805Z" fill="#222222"/>
<path fill-rule="evenodd" clip-rule="evenodd" d="M62.3725 8.28348C62.3725 9.21294 63.2757 9.9133 64.3623 9.9133C65.4488 9.9133 66.3521 9.21294 66.3521 8.28348C66.3521 7.35403 65.4488 6.62748 64.3623 6.62748C63.2757 6.62748 62.3725 7.35403 62.3725 8.28348ZM63.4197 8.27694C63.4197 7.78603 63.8648 7.37366 64.3623 7.37366C64.8597 7.37366 65.3048 7.75985 65.3048 8.27694C65.3048 8.79403 64.8597 9.18021 64.3623 9.18021C63.8648 9.18021 63.4197 8.79403 63.4197 8.27694Z" fill="#222222"/>
<path fill-rule="evenodd" clip-rule="evenodd" d="M4 6.20866V4.95194H7.11564V4.15339C7.11564 3.88503 7.06982 3.47921 6.97164 3.24357H8.94182V4.95194H12.0575V6.21521H10.4735C10.9055 6.71921 11.1673 7.34757 11.1673 8.0283C11.1673 9.63848 9.71418 10.9541 8.032 10.9541C6.34982 10.9541 4.89018 9.63194 4.89018 8.02175C4.89018 7.34103 5.152 6.71266 5.584 6.20866H4ZM8.02545 6.35266C7.22036 6.35266 6.61164 7.0923 6.61164 8.0283C6.61164 8.9643 7.22036 9.70394 8.02545 9.70394C8.83055 9.70394 9.43927 8.9643 9.43927 8.0283C9.43927 7.0923 8.83709 6.35266 8.02545 6.35266Z" fill="#222222"/>
<path d="M7.15491 16.3018C6.91927 16.3018 6.70982 16.0923 6.70982 15.8567V13.4479C6.70982 12.8392 6.61818 12.3548 6.48727 12.1127H8.47709V15.0385H15.1142V16.3018H7.15491Z" fill="#222222"/>
<path d="M14.9702 8.1003V11.0523C14.9702 11.6479 14.9244 12.1716 14.8589 12.5447H13.2029V4.66394C13.2029 4.04212 13.1113 3.57085 12.9804 3.31557H14.9702V6.83703H16.7702V8.1003H14.9702Z" fill="#222222"/>
<path d="M25.4889 5.00431V7.02031C25.4889 7.43268 25.4431 7.90395 25.3711 8.28359H17.0845V9.54686H21.9151V11.7134H18.7536V12.9832H25.3449V16.3672H27.0009C27.0729 16.0007 27.1122 15.477 27.1122 14.8814V11.7134H23.6889V9.54686H28.9187V8.28359H27.0271C27.1514 7.83195 27.2496 7.2494 27.2496 6.72577V3.74759H18.7536V5.00431H25.4889Z" fill="#222222"/>
<path d="M36.518 12.6886V14.6392C36.518 15.1825 36.4787 15.7061 36.4198 16.0334H34.6983V12.6886H29.3572V11.3992H41.8591V12.6886H36.518Z" fill="#222222"/>
<path d="M32.7936 8.84646H40.3602V10.1359H31.4452C31.2031 10.1359 30.9871 9.92646 30.9871 9.68427V5.41009C30.9871 4.78173 30.8889 4.28427 30.7711 4.03555H40.2947V5.33809H32.7936V6.44427H40.19V7.66173H32.7936V8.84646Z" fill="#222222"/>
<path d="M51.5069 12.9047C49.432 12.2174 47.9593 9.86101 47.9593 7.70756H47.9658V6.02538H50.6102V4.65083H43.3644V6.02538H46.0022V7.70756C46.0022 9.86101 44.536 12.2174 42.4677 12.9047L43.3644 13.9127C44.7193 13.4807 46.1855 12.3483 46.9906 10.9999C47.7826 12.3548 49.2487 13.4807 50.6036 13.9127L51.5069 12.9047Z" fill="#222222"/>
<path d="M54.0335 14.7177V9.53374H55.9906V8.16574H54.0335V3.72138H51.8669C52.0109 4.00283 52.1157 4.51992 52.1157 5.18756V16.3476H53.9157C53.9877 15.9417 54.0335 15.3723 54.0335 14.7177Z" fill="#222222"/>
<path d="M86 6L94 14" stroke="#222222"/>
<path d="M94 6L86 14" stroke="#222222"/>
<path fill-rule="evenodd" clip-rule="evenodd" d="M146.85 8.87862C146.628 8.87862 146.432 8.8971 146.261 8.93406C146.09 8.97168 145.954 9.00336 145.852 9.03108V13.7158C145.963 13.7342 146.083 13.7435 146.212 13.7435H146.489C146.767 13.7435 147.028 13.6979 147.273 13.6049C147.518 13.5125 147.732 13.3653 147.917 13.1614C148.102 12.9587 148.245 12.6881 148.347 12.3509C148.448 12.0136 148.499 11.6005 148.499 11.1101C148.499 10.3801 148.386 9.82638 148.16 9.44688C147.933 9.06804 147.497 8.87862 146.85 8.87862ZM146.698 15.2542C146.411 15.2542 146.129 15.243 145.852 15.2192C145.575 15.1961 145.307 15.1638 145.049 15.1229C144.789 15.0806 144.554 15.0344 144.341 14.9843C144.129 14.9335 143.958 14.8807 143.829 14.8252V4.36027L145.852 3.99991V7.74211C146.074 7.59493 146.326 7.47679 146.608 7.38901C146.89 7.30123 147.192 7.25701 147.516 7.25701C148.578 7.25701 149.349 7.58965 149.83 8.25559C150.31 8.92021 150.551 9.85807 150.551 11.0685C150.551 12.3991 150.211 13.43 149.531 14.1593C148.853 14.8892 147.909 15.2542 146.698 15.2542Z" fill="#222222"/>
<path fill-rule="evenodd" clip-rule="evenodd" d="M173.223 11.0268L175.815 14.1037L174.263 15.3095L171.116 11.4287V15.0468H169.093V4.36013L171.116 4.00043V10.9436L173.999 7.03511L175.538 8.08913L173.223 11.0268Z" fill="#222222"/>
<path fill-rule="evenodd" clip-rule="evenodd" d="M104 4.36716V15.1144H105.247V4.08975L104 4.36716ZM105.695 11.193L108.977 15.3097L109.94 14.5444L107.16 11.1242L109.56 8.03763L108.583 7.31466L105.695 11.193Z" fill="#222222"/>
<path fill-rule="evenodd" clip-rule="evenodd" d="M113.844 14.1457C114.019 14.1457 114.2 14.1226 114.389 14.0764C114.578 14.0302 114.766 13.9702 114.955 13.8962C115.143 13.8223 115.321 13.7319 115.487 13.6256C115.652 13.52 115.799 13.4065 115.928 13.2864V11.5123H114.603C113.931 11.5123 113.441 11.6285 113.133 11.8588C112.825 12.0898 112.671 12.4541 112.671 12.9538C112.671 13.7484 113.062 14.1457 113.844 14.1457ZM111.451 13.0092C111.451 12.2423 111.707 11.6575 112.22 11.2556C112.733 10.8543 113.479 10.653 114.459 10.653H115.928V10.1679C115.928 8.99442 115.411 8.40768 114.376 8.40768C114.043 8.40768 113.694 8.45388 113.329 8.54628C112.964 8.63868 112.629 8.75418 112.324 8.89278L111.95 7.99188C112.329 7.77936 112.738 7.61502 113.176 7.50018C113.615 7.38468 114.043 7.3266 114.459 7.3266C116.251 7.3266 117.148 8.28294 117.148 10.1956V15.0466H116.205L116.053 14.2144C115.673 14.5193 115.269 14.7556 114.84 14.9219C114.41 15.0882 114.001 15.1714 113.613 15.1714C112.938 15.1714 112.409 14.9793 112.026 14.5965C111.643 14.213 111.451 13.6837 111.451 13.0092Z" fill="#222222"/>
<path fill-rule="evenodd" clip-rule="evenodd" d="M124.356 7.27114L125.353 7.99186L122.9 11.0688L125.742 14.4783L124.757 15.2406L121.403 11.1374L124.356 7.27114ZM120.946 15.0466H119.671V4.33283L120.946 4.05563V15.0466Z" fill="#222222"/>
<path fill-rule="evenodd" clip-rule="evenodd" d="M129.515 14.1457C129.689 14.1457 129.871 14.1226 130.06 14.0764C130.248 14.0302 130.437 13.9702 130.626 13.8962C130.814 13.8223 130.992 13.7319 131.157 13.6256C131.322 13.52 131.469 13.4065 131.599 13.2864V11.5123H130.274C129.602 11.5123 129.112 11.6285 128.804 11.8588C128.496 12.0898 128.342 12.4541 128.342 12.9538C128.342 13.7484 128.732 14.1457 129.515 14.1457ZM127.122 13.0092C127.122 12.2423 127.378 11.6575 127.891 11.2556C128.404 10.8543 129.15 10.653 130.13 10.653H131.599V10.1679C131.599 8.99442 131.081 8.40768 130.047 8.40768C129.714 8.40768 129.365 8.45388 129 8.54628C128.635 8.63868 128.3 8.75418 127.995 8.89278L127.621 7.99188C128 7.77936 128.408 7.61502 128.847 7.50018C129.286 7.38468 129.714 7.3266 130.13 7.3266C131.922 7.3266 132.819 8.28294 132.819 10.1956V15.0466H131.876L131.724 14.2144C131.344 14.5193 130.94 14.7556 130.511 14.9219C130.081 15.0882 129.672 15.1714 129.284 15.1714C128.609 15.1714 128.08 14.9793 127.697 14.5965C127.313 14.213 127.122 13.6837 127.122 13.0092Z" fill="#222222"/>
<path fill-rule="evenodd" clip-rule="evenodd" d="M138.343 8.36621C137.677 8.36621 137.167 8.61569 136.811 9.11465C136.456 9.61361 136.278 10.3436 136.278 11.3045C136.278 12.2563 136.456 12.9743 136.811 13.4594C137.167 13.9445 137.677 14.1868 138.343 14.1868C139.017 14.1868 139.533 13.9445 139.888 13.4594C140.243 12.9743 140.422 12.2563 140.422 11.3045C140.422 10.3436 140.243 9.61361 139.888 9.11465C139.533 8.61569 139.017 8.36621 138.343 8.36621ZM138.343 7.3399C139.396 7.3399 140.223 7.68244 140.824 8.3662C141.424 9.04997 141.725 10.0294 141.725 11.3045C141.725 12.5605 141.427 13.5267 140.831 14.2013C140.235 14.8751 139.405 15.213 138.343 15.213C137.289 15.213 136.462 14.8751 135.862 14.2013C135.261 13.5267 134.961 12.5605 134.961 11.3045C134.961 10.0294 135.263 9.04997 135.868 8.3662C136.474 7.68244 137.299 7.3399 138.343 7.3399Z" fill="#222222"/>
<path fill-rule="evenodd" clip-rule="evenodd" d="M154.609 13.6882C154.738 13.6882 154.882 13.6743 155.039 13.6472C155.196 13.6195 155.348 13.5773 155.496 13.5218C155.644 13.4664 155.78 13.4017 155.905 13.3278C156.029 13.2545 156.134 13.18 156.217 13.106V11.7207H155.288C154.244 11.7207 153.722 12.0943 153.722 12.8427C153.722 13.4063 154.018 13.6882 154.609 13.6882ZM151.906 12.8704C151.906 12.0764 152.176 11.4712 152.717 11.0548C153.258 10.639 154.041 10.4311 155.066 10.4311H156.217V10.1822C156.217 9.76643 156.104 9.45887 155.877 9.26021C155.65 9.06155 155.334 8.96189 154.928 8.96189C154.614 8.96189 154.269 9.00611 153.895 9.09389C153.521 9.18167 153.172 9.30377 152.849 9.46085L152.294 8.10257C152.655 7.85309 153.092 7.65047 153.604 7.49273C154.117 7.33565 154.618 7.25711 155.108 7.25711C156.079 7.25711 156.82 7.50923 157.333 8.01215C157.845 8.51639 158.102 9.25757 158.102 10.237V15.0471H156.674L156.466 14.4089C156.06 14.7046 155.669 14.9191 155.295 15.053C154.921 15.187 154.563 15.2543 154.221 15.2543C153.482 15.2543 152.911 15.0445 152.509 14.624C152.108 14.2036 151.906 13.6195 151.906 12.8704Z" fill="#222222"/>
<path fill-rule="evenodd" clip-rule="evenodd" d="M160.231 7.47874H161.659L161.95 8.25556C162.292 7.95064 162.675 7.71238 163.1 7.54144C163.526 7.3705 163.937 7.2847 164.334 7.2847C165.175 7.2847 165.822 7.53682 166.274 8.0404C166.727 8.54398 166.954 9.27196 166.954 10.223V15.047H164.888V10.223C164.888 9.79864 164.789 9.49108 164.59 9.30166C164.392 9.1129 164.066 9.0172 163.613 9.0172C163.428 9.0172 163.214 9.03568 162.968 9.07264C162.724 9.11026 162.5 9.16108 162.297 9.2251V15.047H160.231V7.47874Z" fill="#222222"/>
</svg>
