<svg width="73" height="15" viewBox="0 0 73 15" fill="none" xmlns="http://www.w3.org/2000/svg">
<path d="M69.0285 1.09309V1.91127H69.0154C69.0154 2.17309 68.9827 2.46764 68.9434 2.70327H65.5987V3.44945H67.3398V4.824H68.4001V3.44945H69.3689C70.0103 3.44945 70.4751 3.36436 70.7631 3.27273V2.60509C70.5667 2.64436 70.2525 2.67709 69.9121 2.69673C69.9972 2.39564 70.0758 1.97673 70.0758 1.64945V0.340364H66.1027V1.09309H69.0285Z" fill="#AAAAAA"/>
<path d="M67.3791 7.48146C67.3791 7.61891 67.4969 7.74327 67.6409 7.74327V7.73673H72.3863V6.984H68.4263V5.328H67.2416C67.3201 5.472 67.3791 5.76 67.3791 6.12655V7.48146Z" fill="#AAAAAA"/>
<path d="M71.254 5.66182H72.2358L72.2423 5.66836C72.2816 5.44582 72.3078 5.13164 72.3078 4.77818V0H71.1231C71.1951 0.157091 71.254 0.432 71.254 0.805091V4.05164H69.6569V4.79782H71.254V5.66182Z" fill="#AAAAAA"/>
<path d="M56.7099 3.42966V4.18239H63.995V3.42966H56.7099Z" fill="#AAAAAA"/>
<path d="M57.5805 0.170028V0.922756H59.7863C59.6815 1.71476 58.4117 2.33657 57.2205 2.40203L57.6655 3.01076C58.4772 2.97803 59.8059 2.56567 60.3557 1.9373C60.899 2.55912 62.2343 2.97803 63.0459 3.01076L63.491 2.40203C62.2997 2.33657 61.0365 1.7213 60.9252 0.922756H63.131V0.170028H57.5805Z" fill="#AAAAAA"/>
<path fill-rule="evenodd" clip-rule="evenodd" d="M58.3725 6.28348C58.3725 7.21294 59.2757 7.9133 60.3623 7.9133C61.4488 7.9133 62.3521 7.21294 62.3521 6.28348C62.3521 5.35403 61.4488 4.62748 60.3623 4.62748C59.2757 4.62748 58.3725 5.35403 58.3725 6.28348ZM59.4197 6.27694C59.4197 5.78603 59.8648 5.37366 60.3623 5.37366C60.8597 5.37366 61.3048 5.75985 61.3048 6.27694C61.3048 6.79403 60.8597 7.18021 60.3623 7.18021C59.8648 7.18021 59.4197 6.79403 59.4197 6.27694Z" fill="#AAAAAA"/>
<path fill-rule="evenodd" clip-rule="evenodd" d="M0 4.20866V2.95194H3.11564V2.15339C3.11564 1.88503 3.06982 1.47921 2.97164 1.24357H4.94182V2.95194H8.05746V4.21521H6.47345C6.90546 4.71921 7.16727 5.34757 7.16727 6.0283C7.16727 7.63848 5.71418 8.95412 4.032 8.95412C2.34982 8.95412 0.890182 7.63194 0.890182 6.02175C0.890182 5.34103 1.152 4.71266 1.584 4.20866H0ZM4.02545 4.35266C3.22036 4.35266 2.61164 5.0923 2.61164 6.0283C2.61164 6.9643 3.22036 7.70394 4.02545 7.70394C4.83055 7.70394 5.43927 6.9643 5.43927 6.0283C5.43927 5.0923 4.83709 4.35266 4.02545 4.35266Z" fill="#AAAAAA"/>
<path d="M3.15491 14.3018C2.91927 14.3018 2.70982 14.0923 2.70982 13.8567V11.4479C2.70982 10.8392 2.61818 10.3548 2.48727 10.1127H4.47709V13.0385H11.1142V14.3018H3.15491Z" fill="#AAAAAA"/>
<path d="M10.9702 6.1003V9.0523C10.9702 9.64794 10.9244 10.1716 10.8589 10.5447H9.20291V2.66394C9.20291 2.04212 9.11127 1.57085 8.98036 1.31557H10.9702V4.83703H12.7702V6.1003H10.9702Z" fill="#AAAAAA"/>
<path d="M21.4889 3.00431V5.02031C21.4889 5.43268 21.4431 5.90395 21.3711 6.28359H13.0845V7.54686H17.9151V9.7134H14.7536V10.9832H21.3449V14.3672H23.0009C23.0729 14.0007 23.1122 13.477 23.1122 12.8814V9.7134H19.6889V7.54686H24.9187V6.28359H23.0271C23.1514 5.83195 23.2496 5.2494 23.2496 4.72577V1.74759H14.7536V3.00431H21.4889Z" fill="#AAAAAA"/>
<path d="M32.518 10.6886V12.6392C32.518 13.1825 32.4787 13.7061 32.4198 14.0334H30.6983V10.6886H25.3572V9.39918H37.8591V10.6886H32.518Z" fill="#AAAAAA"/>
<path d="M28.7936 6.84646H36.3602V8.13591H27.4452C27.2031 8.13591 26.9871 7.92646 26.9871 7.68427V3.41009C26.9871 2.78173 26.8889 2.28427 26.7711 2.03555H36.2947V3.33809H28.7936V4.44427H36.19V5.66173H28.7936V6.84646Z" fill="#AAAAAA"/>
<path d="M47.5069 10.9047C45.432 10.2174 43.9593 7.86101 43.9593 5.70756H43.9658V4.02538H46.6102V2.65083H39.3644V4.02538H42.0022V5.70756C42.0022 7.86101 40.536 10.2174 38.4677 10.9047L39.3644 11.9127C40.7193 11.4807 42.1855 10.3483 42.9906 8.99992C43.7826 10.3548 45.2487 11.4807 46.6036 11.9127L47.5069 10.9047Z" fill="#AAAAAA"/>
<path d="M50.0335 12.7177V7.53374H51.9906V6.16574H50.0335V1.72138H47.8669C48.0109 2.00283 48.1157 2.51992 48.1157 3.18756V14.3476H49.9157C49.9877 13.9417 50.0335 13.3723 50.0335 12.7177Z" fill="#AAAAAA"/>
</svg>
