<svg width="11" height="16" viewBox="0 0 11 16" fill="none" xmlns="http://www.w3.org/2000/svg">
<path d="M9.24 6.96C8.52 5.9 7.39 5.36 5.87 5.36C4.55 5.36 3.49 5.79 2.67 6.66C2.81 5.42 3.27 4.36 4.07 3.49C4.87 2.61 6.1 2.17 7.76 2.15H8.03V0H7.73C5.84 0 4.33 0.41 3.2 1.23C2.07 2.05 1.25 3.13 0.75 4.46C0.25 5.79 0 7.23 0 8.78V9.63C0 11.52 0.48 13.04 1.44 14.2C2.4 15.36 3.67 15.93 5.25 15.93C6.86 15.93 8.11 15.41 8.99 14.38C9.87 13.35 10.32 12.08 10.32 10.59C10.32 9.23 9.96 8.02 9.24 6.96ZM7.07 12.93C6.62 13.52 6 13.82 5.22 13.82C4.51 13.82 3.9 13.5 3.38 12.86C2.86 12.22 2.61 11.27 2.61 10.02V9.22C2.81 8.73 3.15 8.32 3.61 7.97C4.08 7.63 4.62 7.45 5.23 7.45C6.05 7.45 6.68 7.77 7.1 8.4C7.53 9.03 7.74 9.78 7.74 10.65C7.75 11.58 7.52 12.34 7.07 12.93Z" fill="#222222"/>
</svg>
