<svg width="11" height="17" viewBox="0 0 11 17" fill="none" xmlns="http://www.w3.org/2000/svg">
<path d="M8.82 1.49C7.89 0.5 6.65 0 5.11 0C3.58 0 2.35 0.5 1.41 1.5C0.47 2.51 0 4.25 0 6.74V9.49C0.03 11.87 0.51 13.57 1.46 14.57C2.4 15.57 3.63 16.07 5.14 16.07C6.69 16.07 7.92 15.55 8.85 14.52C9.78 13.49 10.24 11.73 10.24 9.26V6.67C10.23 4.21 9.76 2.49 8.82 1.49ZM7.64 9.72C7.63 11.27 7.41 12.36 6.98 13.01C6.55 13.66 5.93 13.98 5.13 13.98C4.33 13.98 3.71 13.65 3.27 13C2.83 12.35 2.61 11.23 2.61 9.64V6.25C2.62 4.71 2.84 3.63 3.28 3.02C3.71 2.4 4.33 2.09 5.11 2.09C5.92 2.09 6.54 2.4 6.98 3.03C7.42 3.66 7.64 4.76 7.64 6.33V9.72Z" fill="#222222"/>
</svg>
