<svg width="11" height="16" viewBox="0 0 11 16" fill="none" xmlns="http://www.w3.org/2000/svg">
<path d="M8.91 1.89C8.05 0.63 6.77 0 5.05 0C3.44 0 2.2 0.53 1.32 1.6C0.44 2.67 0 3.95 0 5.46C0 6.83 0.37 8.05 1.11 9.1C1.85 10.15 2.98 10.68 4.5 10.68C5.67 10.68 6.7 10.22 7.57 9.29C7.48 10.55 7.08 11.6 6.37 12.45C5.66 13.3 4.4 13.73 2.59 13.75H2.27V15.92H2.48C4.49 15.92 6.06 15.51 7.17 14.68C8.28 13.85 9.07 12.78 9.52 11.45C9.97 10.12 10.19 8.71 10.19 7.2V6.36C10.19 4.63 9.77 3.14 8.91 1.89ZM7.59 6.95C7.37 7.43 7.03 7.83 6.58 8.16C6.12 8.48 5.61 8.65 5.05 8.65C4.21 8.65 3.59 8.32 3.19 7.66C2.79 7 2.58 6.24 2.58 5.39C2.58 4.49 2.79 3.72 3.22 3.08C3.65 2.44 4.25 2.12 5.04 2.12C5.72 2.12 6.32 2.44 6.83 3.09C7.34 3.74 7.6 4.69 7.6 5.94V6.95H7.59Z" fill="#222222"/>
</svg>
