<svg width="11" height="17" viewBox="0 0 11 17" fill="none" xmlns="http://www.w3.org/2000/svg">
<path d="M9.56 9.31C9.1 8.65 8.49 8.15 7.71 7.79C8.38 7.45 8.92 6.97 9.31 6.37C9.7 5.77 9.9 5.09 9.9 4.33C9.9 2.95 9.45 1.88 8.55 1.13C7.66 0.38 6.51 0 5.12 0C3.73 0 2.59 0.38 1.69 1.13C0.79 1.88 0.34 2.95 0.34 4.33C0.34 5.09 0.54 5.77 0.93 6.37C1.32 6.97 1.85 7.44 2.53 7.79C1.75 8.14 1.14 8.64 0.68 9.3C0.23 9.96 0 10.72 0 11.59C0 13.04 0.49 14.14 1.48 14.91C2.46 15.68 3.68 16.06 5.14 16.06C6.6 16.06 7.81 15.68 8.79 14.91C9.77 14.14 10.26 13.03 10.26 11.58C10.25 10.72 10.02 9.96 9.56 9.31ZM3.54 2.72C3.94 2.3 4.47 2.09 5.12 2.09C5.79 2.09 6.31 2.31 6.7 2.74C7.1 3.18 7.29 3.74 7.29 4.43C7.29 5.13 7.1 5.7 6.71 6.13C6.32 6.56 5.8 6.77 5.13 6.77C4.46 6.77 3.93 6.56 3.53 6.13C3.13 5.7 2.94 5.13 2.94 4.43C2.95 3.71 3.15 3.14 3.54 2.72ZM6.97 13.3C6.53 13.75 5.91 13.97 5.13 13.97C4.35 13.97 3.73 13.75 3.28 13.3C2.83 12.85 2.6 12.23 2.6 11.45C2.6 10.68 2.83 10.05 3.28 9.58C3.74 9.1 4.35 8.86 5.11 8.86C5.87 8.86 6.48 9.1 6.94 9.57C7.4 10.05 7.63 10.67 7.63 11.44C7.64 12.24 7.42 12.86 6.97 13.3Z" fill="#222222"/>
</svg>
