<svg width="11" height="16" viewBox="0 0 11 16" fill="none" xmlns="http://www.w3.org/2000/svg">
<path d="M10.83 13.76V15.85H0.3V14.05L5.39 8.51C6.25 7.56 6.83 6.8 7.14 6.23C7.45 5.66 7.6 5.11 7.6 4.58C7.61 3.86 7.4 3.27 7 2.8C6.6 2.33 6.02 2.1 5.28 2.1C4.39 2.1 3.73 2.37 3.28 2.91C2.83 3.45 2.61 4.14 2.61 4.97H0C0 3.6 0.46 2.43 1.39 1.46C2.31 0.49 3.62 0 5.31 0C6.87 0 8.08 0.39 8.94 1.17C9.8 1.95 10.22 2.99 10.22 4.3C10.22 5.26 9.93 6.2 9.34 7.13C8.76 8.05 8 9.01 7.07 10L3.56 13.76H10.83Z" fill="#222222"/>
</svg>
