<svg width="11" height="16" viewBox="0 0 11 16" fill="none" xmlns="http://www.w3.org/2000/svg">
<path d="M2.57 8.4L0.49 7.88L1.33 0H9.73V2.25H3.5L3.08 5.98C3.81 5.57 4.62 5.37 5.52 5.37C7 5.37 8.16 5.84 8.99 6.78C9.82 7.72 10.24 9.01 10.24 10.63C10.24 12.08 9.82 13.31 8.97 14.33C8.12 15.35 6.83 15.86 5.09 15.86C3.79 15.86 2.64 15.48 1.64 14.73C0.64 13.97 0.09 12.87 0 11.42H2.54C2.74 12.99 3.59 13.77 5.1 13.77C5.95 13.77 6.58 13.47 7.01 12.87C7.44 12.27 7.65 11.5 7.65 10.57C7.65 9.67 7.41 8.94 6.94 8.36C6.46 7.77 5.76 7.48 4.86 7.48C4.25 7.48 3.79 7.57 3.47 7.74C3.15 7.92 2.85 8.14 2.57 8.4Z" fill="#222222"/>
</svg>
